<?xml version="1.0" standalone="no"?>
<!DOCTYPE svg PUBLIC "-//W3C//DTD SVG 20010904//EN"
 "http://www.w3.org/TR/2001/REC-SVG-20010904/DTD/svg10.dtd">
<svg version="1.0" xmlns="http://www.w3.org/2000/svg"
 width="1280.000000pt" height="925.000000pt" viewBox="0 0 1280.000000 925.000000"
 preserveAspectRatio="xMidYMid meet">
<metadata>
Created by potrace 1.15, written by Peter Selinger 2001-2017
</metadata>
<g transform="translate(0.000000,925.000000) scale(0.100000,-0.100000)"
fill="#000000" stroke="none">
<path d="M12180 9244 c-138 -50 -148 -105 -41 -215 31 -32 57 -59 56 -60 0 -2
-215 -45 -215 -43 0 1 7 14 15 30 18 36 29 124 21 170 -6 29 -14 38 -44 51
-66 27 -190 -9 -214 -62 -15 -34 11 -91 74 -156 27 -28 48 -52 46 -54 -2 -1
-56 -14 -122 -29 -107 -24 -149 -27 -120 -8 16 10 34 93 34 152 0 41 -5 56
-26 77 -24 24 -31 25 -90 20 -71 -5 -137 -40 -149 -77 -10 -31 28 -100 85
-154 28 -26 50 -50 50 -54 0 -4 -44 -18 -98 -31 -53 -13 -102 -26 -108 -28 -8
-3 -8 13 2 54 21 89 18 137 -10 170 -21 24 -31 27 -79 27 -65 -1 -138 -33
-156 -68 -20 -36 1 -86 64 -153 30 -31 53 -58 52 -59 -1 -2 -51 -16 -110 -32
-107 -29 -133 -27 -104 6 20 24 41 134 33 175 -10 53 -38 72 -104 71 -86 -1
-162 -45 -162 -94 0 -33 46 -105 93 -147 62 -55 57 -62 -71 -96 -62 -17 -115
-28 -118 -24 -3 3 1 16 10 29 24 38 40 151 26 193 -14 42 -35 55 -91 55 -94 0
-169 -44 -169 -99 0 -33 82 -151 111 -158 9 -3 19 -16 22 -29 4 -25 4 -26 -98
-50 -68 -17 -157 -82 -192 -142 -27 -46 -35 -114 -21 -178 6 -27 3 -32 -32
-54 -21 -13 -41 -31 -43 -40 -2 -9 -103 -81 -223 -159 -120 -79 -304 -199
-409 -268 -104 -68 -199 -129 -211 -136 -11 -7 -81 -52 -155 -101 -393 -261
-602 -396 -614 -396 -8 0 -18 -6 -22 -14 -4 -8 -154 -109 -333 -226 -179 -117
-374 -245 -435 -285 -60 -40 -184 -121 -275 -180 -91 -60 -208 -136 -260 -170
-52 -34 -189 -123 -303 -198 -114 -76 -213 -137 -219 -137 -6 0 -20 -10 -32
-21 -12 -12 -77 -58 -146 -103 -102 -67 -481 -312 -541 -351 -16 -10 -94 -62
-296 -197 -56 -37 -104 -68 -106 -68 -3 0 -44 -26 -91 -59 -97 -66 -91 -65
-261 -36 -170 29 -259 69 -328 145 -60 67 -77 123 -77 254 0 124 19 207 68
300 40 76 95 136 309 334 105 97 127 123 158 185 92 187 49 366 -115 475 -81
55 -168 77 -273 69 -391 -28 -755 -237 -1116 -642 -64 -71 -232 -274 -373
-450 -245 -306 -412 -499 -470 -545 -38 -30 -152 -84 -228 -108 -163 -53 -316
-80 -590 -107 -553 -53 -1021 -163 -1407 -330 -222 -96 -331 -168 -433 -288
-324 -379 -446 -877 -340 -1384 46 -221 154 -475 353 -828 575 -1024 1186
-1758 1652 -1984 168 -82 334 -116 570 -115 170 0 258 13 404 60 162 53 378
175 527 299 271 226 600 624 788 955 189 331 428 537 793 684 139 56 273 95
623 184 298 76 385 104 500 162 196 99 312 234 349 408 14 68 14 227 0 310
-14 80 -47 120 -133 162 -127 63 -229 61 -457 -6 -112 -33 -136 -37 -244 -37
-100 -1 -131 3 -184 22 -118 41 -201 109 -266 216 -39 65 -89 210 -83 243 2
14 117 101 348 264 190 134 355 250 367 258 12 8 99 70 193 137 94 68 176 123
181 123 5 0 24 14 42 31 24 22 670 483 857 611 40 28 260 184 324 230 32 24
101 72 152 108 52 36 368 260 704 498 335 237 618 432 630 432 11 0 20 6 20
14 0 14 331 256 349 256 5 0 14 7 21 15 11 13 313 231 361 260 9 6 101 71 205
145 104 74 196 140 205 145 9 6 108 76 220 156 132 95 208 144 215 138 14 -12
94 45 94 68 0 14 12 15 113 10 105 -6 230 -30 390 -75 l67 -19 78 47 c126 78
264 213 477 465 64 77 158 184 207 238 l90 98 14 -28 c51 -103 230 -159 379
-119 113 30 189 90 234 185 24 51 26 67 26 181 0 182 -35 296 -115 379 -64 65
-91 76 -205 76 -55 0 -119 -4 -142 -9 l-43 -9 17 34 c10 20 19 67 21 114 4 72
2 82 -17 99 -21 19 -101 31 -131 20z"/>
</g>
</svg>
